<?xml version="1.0" encoding="UTF-8" standalone="no"?>
<!-- Created with Inkscape (http://www.inkscape.org/) -->

<svg
   xmlns:dc="http://purl.org/dc/elements/1.1/"
   xmlns:cc="http://creativecommons.org/ns#"
   xmlns:rdf="http://www.w3.org/1999/02/22-rdf-syntax-ns#"
   xmlns:svg="http://www.w3.org/2000/svg"
   xmlns="http://www.w3.org/2000/svg"
   xmlns:sodipodi="http://sodipodi.sourceforge.net/DTD/sodipodi-0.dtd"
   xmlns:inkscape="http://www.inkscape.org/namespaces/inkscape"
   width="512"
   height="512"
   viewBox="0 0 135.46666 135.46667"
   version="1.1"
   id="svg8"
   inkscape:version="0.92.2 2405546, 2018-03-11"
   sodipodi:docname="logo.svg"
   inkscape:export-filename="/FwzFiles/AndroidStudioProjects/tobuy/play_resources/logo.png"
   inkscape:export-xdpi="96"
   inkscape:export-ydpi="96">
  <defs
     id="defs2" />
  <sodipodi:namedview
     id="base"
     pagecolor="#ffffff"
     bordercolor="#666666"
     borderopacity="1.0"
     inkscape:pageopacity="0.0"
     inkscape:pageshadow="2"
     inkscape:zoom="1.4"
     inkscape:cx="221.41352"
     inkscape:cy="240.78921"
     inkscape:document-units="px"
     inkscape:current-layer="layer1"
     showgrid="false"
     units="px"
     inkscape:window-width="1920"
     inkscape:window-height="1025"
     inkscape:window-x="0"
     inkscape:window-y="0"
     inkscape:window-maximized="1" />
  <metadata
     id="metadata5">
    <rdf:RDF>
      <cc:Work
         rdf:about="">
        <dc:format>image/svg+xml</dc:format>
        <dc:type
           rdf:resource="http://purl.org/dc/dcmitype/StillImage" />
        <dc:title />
      </cc:Work>
    </rdf:RDF>
  </metadata>
  <g
     inkscape:label="Layer 1"
     inkscape:groupmode="layer"
     id="layer1"
     transform="translate(0,-161.53332)">
    <g
       id="g851"
       transform="matrix(1.980755,0,0,1.980755,-66.055474,-186.16075)">
      <path
         style="fill:#fdf102;stroke-width:0.26458332"
         d="m 58.944792,243.49168 c -0.06551,-0.18393 -0.151701,-1.10831 -0.191545,-2.0542 l -0.07244,-1.71979 -4.101041,-0.13229 -4.101042,-0.13229 -0.132292,-1.98438 -0.132291,-1.98437 -1.984375,-0.1323 -1.984375,-0.13229 -0.132292,-6.21771 -0.132291,-6.2177 -1.984375,-0.1323 -1.984375,-0.13229 v -12.83229 -12.83229 l 1.984375,-0.13229 1.984375,-0.13229 0.132291,-4.10104 0.132292,-4.10105 1.984375,-0.13229 1.984375,-0.13229 0.132291,-1.98437 0.132292,-1.98438 1.984375,-0.13229 1.984375,-0.13229 0.132292,-1.98438 0.132291,-1.98437 4.101042,-0.13229 4.101041,-0.1323 0.132292,-1.98437 0.132292,-1.98438 h 6.482291 6.482292 l 0.132291,1.98438 0.132292,1.98437 4.101042,0.1323 4.101041,0.13229 0.132292,1.98437 0.132291,1.98438 1.984375,0.13229 1.984375,0.13229 0.132292,4.10104 0.132292,4.10104 1.984375,0.1323 1.984374,0.13229 v 17.06562 17.06563 l -1.984374,0.13229 -1.984375,0.13229 -0.132292,4.10104 -0.132292,4.10104 -1.984375,0.13229 -1.984375,0.1323 -0.132291,1.98437 -0.132292,1.98438 -4.101041,0.13229 -4.101042,0.13229 -0.132292,1.98437 -0.132291,1.98438 -8.539708,0.0698 c -6.693093,0.0547 -8.565459,-0.002 -8.658804,-0.26458 z m 4.205621,-17.28938 c 0.08833,-0.23018 0.160599,-7.85018 0.160599,-16.93333 v -16.51482 l 3.902604,-0.004 c 2.146433,-0.002 4.057309,-0.10218 4.246391,-0.22212 0.241392,-0.15312 0.320196,-0.76265 0.264583,-2.04647 l -0.0792,-1.8284 h -4.101044 -4.101042 l -0.07708,2.03959 -0.07708,2.03958 -2.039588,0.0771 -2.039588,0.0771 -0.06859,16.53646 c -0.03773,9.09505 -0.01169,16.68528 0.05784,16.86719 0.201861,0.52803 3.745087,0.44931 3.951192,-0.0878 z M 50.478721,209.68748 v -12.30312 h -1.852083 -1.852083 l -0.06897,12.03854 c -0.03794,6.6212 -0.0098,12.19284 0.06251,12.38144 0.09407,0.24533 0.640703,0.32062 1.921056,0.26458 l 1.78957,-0.0783 z m 4.233333,-18.91771 v -1.85208 h -1.852083 -1.852083 l -0.08044,1.55788 c -0.117766,2.28077 -0.08644,2.3157 1.995035,2.2246 l 1.78957,-0.0783 z m 4.233334,-4.23333 v -1.85208 h -1.852084 -1.852083 l -0.08044,1.55787 c -0.117766,2.28077 -0.08644,2.3157 1.995035,2.22461 l 1.789571,-0.0783 z m 12.435416,-4.23333 v -1.85209 h -3.836458 -3.836459 l -0.08044,1.55788 c -0.04424,0.85683 -0.01696,1.72332 0.06064,1.92553 0.113178,0.29493 0.88787,0.35312 3.916897,0.2942 l 3.775816,-0.0734 z"
         id="path836"
         inkscape:connector-curvature="0" />
      <path
         style="fill:#a5a5a5;stroke-width:0.26458332"
         d="m 58.944792,243.49168 c -0.06551,-0.18393 -0.151701,-1.10831 -0.191545,-2.0542 l -0.07244,-1.71979 -4.101041,-0.13229 -4.101042,-0.13229 -0.132292,-1.98438 -0.132291,-1.98437 -1.984375,-0.1323 -1.984375,-0.13229 -0.132292,-6.21771 -0.132291,-6.2177 -1.984375,-0.1323 -1.984375,-0.13229 v -12.83229 -12.83229 l 1.984375,-0.13229 1.984375,-0.13229 0.132291,-4.10104 0.132292,-4.10105 1.984375,-0.13229 1.984375,-0.13229 0.132291,-1.98437 0.132292,-1.98438 1.984375,-0.13229 1.984375,-0.13229 0.132292,-1.98438 0.132291,-1.98437 4.101042,-0.13229 4.101041,-0.1323 0.132292,-1.98437 0.132292,-1.98438 h 6.482291 6.482292 l 0.132291,1.98438 0.132292,1.98437 4.101042,0.1323 4.101041,0.13229 0.132292,1.98437 0.132291,1.98438 1.984375,0.13229 1.984375,0.13229 0.132292,4.10104 0.132292,4.10104 1.984375,0.1323 1.984374,0.13229 v 17.06562 17.06563 l -1.984374,0.13229 -1.984375,0.13229 -0.132292,4.10104 -0.132292,4.10104 -1.984375,0.13229 -1.984375,0.1323 -0.132291,1.98437 -0.132292,1.98438 -4.101041,0.13229 -4.101042,0.13229 -0.132292,1.98437 -0.132291,1.98438 -8.539708,0.0698 c -6.693093,0.0547 -8.565459,-0.002 -8.658804,-0.26458 z m 3.94444,-12.86182 c 0.07624,-0.12336 0.218385,-2.83203 0.315876,-6.01927 0.09749,-3.18724 0.294843,-5.94381 0.43856,-6.12571 0.163703,-0.2072 0.940993,-0.33073 2.08099,-0.33073 h 1.819688 v -12.40302 c 0,-9.8581 0.07062,-12.46163 0.344178,-12.68866 0.189296,-0.1571 2.094296,-0.36834 4.233333,-0.46941 l 3.889155,-0.18376 v -1.94424 -1.94424 h -8.329334 -8.329335 l -0.134337,-0.59532 c -0.07389,-0.32742 -0.165452,-1.19062 -0.20348,-1.91823 l -0.06914,-1.32291 h -1.852082 -1.852083 v 1.85208 1.85208 l 1.322917,0.0691 c 2.520897,0.13175 2.513541,0.1259 2.513541,1.99966 0,0.93975 -0.137956,1.79978 -0.3175,1.97933 -0.179543,0.17954 -1.039574,0.3175 -1.979334,0.3175 -1.873753,0 -1.867903,0.007 -1.999652,-2.51354 l -0.06914,-1.32292 H 52.85997 51.007887 v 1.85208 1.85209 l 1.322916,0.0691 c 0.727605,0.038 1.590808,0.12959 1.91823,0.20347 l 0.595312,0.13434 v 18.91267 18.91267 h 3.953134 c 2.174224,0 4.015513,-0.10093 4.091752,-0.22429 z m 13.067464,-1.83806 0.07797,-1.93006 -1.930059,0.078 -1.930058,0.078 -0.08044,1.55787 c -0.117766,2.28077 -0.08644,2.31571 1.995035,2.22461 l 1.78957,-0.0783 z m 4.155358,-19.10432 v -16.80104 l -1.91823,-0.0777 -1.918229,-0.0777 v 16.95651 16.95652 l 1.918229,-0.0777 1.91823,-0.0777 z m -29.633333,0 v -12.30312 h -1.852083 -1.852083 l -0.06897,12.03854 c -0.03794,6.6212 -0.0098,12.19284 0.06251,12.38144 0.09407,0.24533 0.640703,0.32062 1.921056,0.26458 l 1.78957,-0.0783 z m 20.902083,-27.38437 v -1.85209 h -3.836458 -3.836459 l -0.08044,1.55788 c -0.04424,0.85683 -0.01696,1.72332 0.06064,1.92553 0.113178,0.29493 0.88787,0.35312 3.916897,0.2942 l 3.775816,-0.0734 z"
         id="path834"
         inkscape:connector-curvature="0" />
      <path
         style="fill:#fbb800;stroke-width:0.26458332"
         d="m 59.395179,243.23665 c -0.18469,-0.18469 -0.3175,-1.07009 -0.3175,-2.11667 v -1.79917 h -3.915833 c -2.692871,0 -4.014991,-0.0992 -4.233333,-0.3175 -0.18469,-0.18469 -0.3175,-1.07009 -0.3175,-2.11666 v -1.79917 h -1.819688 c -1.221782,0 -1.918957,-0.11961 -2.121815,-0.36404 -0.211502,-0.25485 -0.280744,-2.13977 -0.230834,-6.28386 l 0.0713,-5.91981 2.050521,-0.0773 2.050521,-0.0773 v -12.67774 -12.67774 l -2.050521,-0.0773 -2.050521,-0.0773 -0.07359,-3.80037 c -0.05111,-2.6392 0.02225,-3.91586 0.24008,-4.17833 0.227303,-0.27388 0.793965,-0.35667 2.057969,-0.30067 l 1.744295,0.0773 0.07727,2.05052 0.07728,2.05052 h 1.687023 c 0.927862,0 1.875354,0.0723 2.105536,0.1606 0.376224,0.14437 0.418515,2.06941 0.418515,19.05 v 18.8894 h 3.953134 c 2.174224,0 4.020889,-0.10963 4.103701,-0.24362 0.08281,-0.13399 0.225134,-2.84266 0.316275,-6.01927 0.09114,-3.17661 0.283117,-5.92448 0.426614,-6.10638 0.163481,-0.20724 0.940377,-0.33073 2.080588,-0.33073 h 1.819688 v -12.40302 c 0,-9.60062 0.07473,-12.46462 0.330729,-12.67567 0.181901,-0.14995 2.086901,-0.35914 4.233333,-0.46485 l 3.902604,-0.19221 v -1.94879 -1.94879 h -8.306067 c -9.448771,0 -8.627266,0.24034 -8.627266,-2.52406 v -1.68702 l -2.050521,-0.0773 -2.05052,-0.0773 -0.07729,-1.74429 c -0.056,-1.26401 0.02678,-1.83067 0.300667,-2.05797 0.262472,-0.21784 1.539126,-0.29119 4.178326,-0.24008 l 3.800375,0.0736 0.07727,2.05052 0.07728,2.05052 h 4.222202 4.222205 v -2.10995 -2.10994 l -4.167188,-0.0729 -4.167187,-0.0729 -0.07937,-1.67675 c -0.04774,-1.00843 0.04427,-1.82572 0.230833,-2.05052 0.416521,-0.50188 11.601119,-0.5539 12.098745,-0.0563 0.18469,0.18469 0.3175,1.07009 0.3175,2.11666 v 1.79917 h 3.915833 c 2.692871,0 4.014991,0.0992 4.233333,0.3175 0.18469,0.18469 0.3175,1.07009 0.3175,2.11667 v 1.79916 h 1.799167 c 1.046575,0 1.931977,0.13281 2.116667,0.3175 0.218342,0.21834 0.3175,1.54047 0.3175,4.23334 v 3.91583 h 1.799166 c 1.046575,0 1.931977,0.13281 2.116667,0.3175 0.458719,0.45872 0.458719,32.77295 0,33.23166 -0.18469,0.18469 -1.070092,0.3175 -2.116667,0.3175 h -1.799166 v 3.91584 c 0,2.69287 -0.09916,4.01499 -0.3175,4.23333 -0.18469,0.18469 -1.070092,0.3175 -2.116667,0.3175 H 84.47768 v 1.79917 c 0,1.04657 -0.13281,1.93197 -0.3175,2.11666 -0.218342,0.21835 -1.540462,0.3175 -4.233333,0.3175 h -3.915833 v 1.79917 c 0,1.04658 -0.13281,1.93198 -0.3175,2.11667 -0.453517,0.45351 -15.844816,0.45351 -16.298333,0 z m 16.561517,-14.44485 0.07797,-1.93006 -1.930059,0.078 -1.930058,0.078 -0.08044,1.55787 c -0.117766,2.28077 -0.08644,2.31571 1.995035,2.22461 l 1.78957,-0.0783 z m 4.155358,-19.10432 v -16.80104 l -1.91823,-0.0777 -1.918229,-0.0777 v 16.95651 16.95652 l 1.918229,-0.0777 1.91823,-0.0777 z m -37.639568,12.39314 c -0.515774,-0.51577 -0.471878,-24.37988 0.04563,-24.80938 0.224796,-0.18657 1.042086,-0.27857 2.05052,-0.23084 l 1.676747,0.0794 v 12.56771 12.56771 l -1.722381,0.0768 c -1.111963,0.0496 -1.838675,-0.0395 -2.050521,-0.25135 z M 54.966049,192.1447 c -0.08413,-0.3352 -0.116165,-1.25794 -0.07119,-2.05052 l 0.08178,-1.44107 1.441066,-0.0818 c 2.509202,-0.14239 2.659975,-0.0355 2.659975,1.88599 0,0.93975 -0.137956,1.79978 -0.3175,1.97933 -0.179543,0.17954 -1.039574,0.3175 -1.979334,0.3175 -1.51415,0 -1.675427,-0.0542 -1.814796,-0.60945 z m -4.168158,-3.78978 c -0.358886,-0.35889 -0.20582,-3.45776 0.186896,-3.78368 0.224795,-0.18657 1.042088,-0.27857 2.050521,-0.23084 l 1.676746,0.0794 v 1.98438 1.98437 l -1.863643,0.0766 c -1.025003,0.0422 -1.947738,-0.007 -2.05052,-0.11024 z"
         id="path832"
         inkscape:connector-curvature="0" />
      <path
         style="fill:#9d7300;stroke-width:0.26458332"
         d="m 59.395179,243.23665 c -0.18469,-0.18469 -0.3175,-1.07009 -0.3175,-2.11667 v -1.79917 h -3.915833 c -2.692871,0 -4.014991,-0.0992 -4.233333,-0.3175 -0.18469,-0.18469 -0.3175,-1.07009 -0.3175,-2.11666 v -1.79917 h -1.819688 c -1.221782,0 -1.918957,-0.11961 -2.121815,-0.36404 -0.211502,-0.25485 -0.280744,-2.13977 -0.230834,-6.28386 l 0.0713,-5.91981 2.182813,-0.0768 2.182812,-0.0769 v 6.19785 6.19786 l 8.532812,0.1821 c 4.693047,0.10016 10.31875,0.14368 12.501562,0.0967 l 3.96875,-0.0854 0.132292,-1.98438 0.132292,-1.98437 1.984375,-0.13229 1.984375,-0.13229 0.132291,-1.98438 0.132292,-1.98437 1.984375,-0.1323 1.984375,-0.13229 v -16.80104 -16.80104 l -1.984375,-0.13229 -1.984375,-0.13229 -0.132292,-3.96875 -0.132291,-3.96875 -4.167188,-0.0729 -4.167187,-0.0729 v -2.23552 -2.23552 l -4.167188,-0.0729 -4.167187,-0.0729 -0.07937,-1.67675 c -0.04774,-1.00843 0.04427,-1.82572 0.230833,-2.05052 0.416521,-0.50188 11.601119,-0.5539 12.098745,-0.0563 0.18469,0.18469 0.3175,1.07009 0.3175,2.11666 v 1.79917 h 3.915833 c 2.692871,0 4.014991,0.0992 4.233333,0.3175 0.18469,0.18469 0.3175,1.07009 0.3175,2.11667 v 1.79916 h 1.799167 c 1.046575,0 1.931977,0.13281 2.116667,0.3175 0.218342,0.21834 0.3175,1.54047 0.3175,4.23334 v 3.91583 h 1.799166 c 1.046575,0 1.931977,0.13281 2.116667,0.3175 0.458719,0.45872 0.458719,32.77295 0,33.23166 -0.18469,0.18469 -1.070092,0.3175 -2.116667,0.3175 h -1.799166 v 3.91584 c 0,2.69287 -0.09916,4.01499 -0.3175,4.23333 -0.18469,0.18469 -1.070092,0.3175 -2.116667,0.3175 h -1.799167 v 1.79917 c 0,1.04657 -0.13281,1.93197 -0.3175,2.11666 -0.218342,0.21835 -1.540462,0.3175 -4.233333,0.3175 h -3.915833 v 1.79917 c 0,1.04658 -0.13281,1.93198 -0.3175,2.11667 -0.453517,0.45351 -15.844816,0.45351 -16.298333,0 z m 3.81185,-12.53643 c -0.286753,-0.74727 -0.171779,-3.69781 0.1569,-4.02649 0.218342,-0.21834 1.540462,-0.3175 4.233333,-0.3175 h 3.915833 V 209.7404 c 0,-12.57065 0.0773,-16.69313 0.3175,-16.93333 0.418182,-0.41819 3.709318,-0.41819 4.1275,0 0.458796,0.45879 0.458796,33.30203 0,33.76083 -0.184689,0.18469 -1.070091,0.3175 -2.116666,0.3175 h -1.799167 v 1.69815 c 0,2.69361 0.281075,2.53518 -4.497916,2.53518 -3.564546,0 -4.200258,-0.0613 -4.337317,-0.41851 z m -20.734543,-8.6196 c -0.515774,-0.51577 -0.471878,-24.37988 0.04563,-24.80938 0.224796,-0.18657 1.042086,-0.27857 2.05052,-0.23084 l 1.676747,0.0794 v 12.56771 12.56771 l -1.722381,0.0768 c -1.111963,0.0496 -1.838675,-0.0395 -2.050521,-0.25135 z m 4.081583,-25.26953 c -0.329603,-0.3296 -0.200369,-7.63129 0.141111,-7.97277 0.344961,-0.34497 3.541355,-0.4467 3.740843,-0.11907 0.06645,0.10914 0.207788,2.01414 0.314076,4.23334 l 0.193254,4.03489 h -2.106448 c -1.158547,0 -2.185823,-0.0794 -2.282836,-0.17639 z m 4.243822,-8.45617 c -0.358886,-0.35889 -0.20582,-3.45776 0.186896,-3.78368 0.224795,-0.18657 1.042088,-0.27857 2.050521,-0.23084 l 1.676746,0.0794 v 1.98438 1.98437 l -1.863643,0.0766 c -1.025003,0.0422 -1.947738,-0.007 -2.05052,-0.11024 z m 6.295413,-4.04981 -2.116666,-0.14992 -0.07729,-1.74429 c -0.056,-1.26401 0.02678,-1.83067 0.300667,-2.05797 0.262472,-0.21784 1.539126,-0.29119 4.178326,-0.24008 l 3.800375,0.0736 0.07685,2.18281 0.07685,2.18282 -2.061221,-0.0485 c -1.13367,-0.0267 -3.01372,-0.11599 -4.177887,-0.19844 z"
         id="path830"
         inkscape:connector-curvature="0" />
      <path
         style="fill:#121009;stroke-width:0.26458332"
         d="m 59.342263,241.30519 v -1.98438 h 8.202083 8.202083 v 1.98438 1.98437 h -8.202083 -8.202083 z m -8.412112,-4.16719 0.07774,-1.91823 3.439583,-0.0763 c 4.799973,-0.10652 4.630208,-0.18226 4.630208,2.06575 v 1.84704 h -4.112633 -4.112633 z m 25.135415,0 0.07774,-1.91823 4.034895,-0.073 4.034896,-0.073 v 1.99126 1.99127 h -4.112633 -4.112633 z m -29.423303,-8.40052 v -6.1086 l 1.918229,0.0777 1.918229,0.0777 v 5.95312 5.95313 l -1.918229,0.0777 -1.918229,0.0777 z m 37.894669,2.05052 0.07304,-4.03489 1.918229,-0.0777 1.918229,-0.0777 v 4.11263 4.11264 h -1.991267 -1.991265 z m -20.848166,-0.28515 c -0.07722,-0.20124 -0.104513,-1.12726 -0.06064,-2.05782 l 0.07976,-1.69192 h 3.836459 3.836458 v 1.98437 1.98438 l -3.775816,0.0734 c -3.020557,0.0588 -3.803901,2.6e-4 -3.916222,-0.29245 z m 8.210439,-4.47735 c -0.06955,-0.1819 -0.09558,-7.65307 -0.05784,-16.6026 l 0.06861,-16.27188 1.91823,-0.0777 1.918229,-0.0777 v 16.68034 16.68034 h -1.860386 c -1.244481,0 -1.902251,-0.10949 -1.986838,-0.33073 z m 16.811807,-16.33802 v -16.66875 h 1.984375 1.984374 v 16.66875 16.66875 h -1.984374 -1.984375 z m -46.302082,0 v -12.43541 h 1.852083 1.852083 v 12.43541 12.43542 H 44.261013 42.40893 Z m 4.233333,-16.93333 v -3.96875 h 1.814949 1.814946 l 0.187802,3.6997 c 0.10329,2.03484 0.112974,3.82077 0.02151,3.96875 -0.09145,0.14798 -0.992682,0.26905 -2.002739,0.26905 h -1.836468 z m 38.011805,-0.17639 c -0.09701,-0.097 -0.17639,-1.94248 -0.17639,-4.10104 v -3.92465 h 1.984375 1.984375 v 4.10104 4.10104 h -1.807985 c -0.994394,0 -1.887363,-0.0794 -1.984375,-0.17639 z m -33.778472,-6.17361 v -1.85208 h 1.852083 1.852084 v 1.85208 1.85208 h -1.852084 -1.852083 z m 6.416146,-2.30824 -2.182813,-0.0944 v -1.84138 -1.84139 h 3.980342 3.980341 l -0.07774,1.91823 -0.07774,1.91823 -1.719791,0.0176 c -0.945886,0.01 -2.702057,-0.0249 -3.902604,-0.0769 z m 14.92691,0.0152 c -0.09701,-0.097 -0.17639,-0.92194 -0.17639,-1.83318 0,-2.45365 -0.06483,-2.48834 -4.649107,-2.48834 h -3.817559 v -1.85209 -1.85208 h 6.085416 6.085417 v 1.70089 c 0,2.50407 0.05209,2.53244 4.649107,2.53244 h 3.817559 v 1.98438 1.98437 h -5.909027 c -3.249967,0 -5.988404,-0.0794 -6.085416,-0.17639 z"
         id="path828"
         inkscape:connector-curvature="0" />
    </g>
  </g>
</svg>
